<svg width="118" height="28" viewBox="0 0 118 28" fill="none" xmlns="http://www.w3.org/2000/svg">
<path d="M30.1054 8.21407C32.591 8.21407 34.7732 9.29977 36.2782 10.8367V8.75022H40.4757V26.7113H36.2782V24.6382L36.2241 24.6985C34.8108 26.2355 32.7132 27.1827 30.2229 27.243L30.0913 27.2452H29.9666C24.3276 27.2452 20.4429 23.3023 20.4429 17.7285C20.4405 12.2106 24.4852 8.21407 30.1054 8.21407ZM74.385 8.21407C76.8706 8.21407 78.9658 9.21041 80.4708 10.7452L80.5578 10.8345V8.74798H84.7553V26.7091H80.5578V24.636L80.5037 24.6963C79.0904 26.2333 76.9928 27.1805 74.5025 27.2408L74.3709 27.243H74.2462C68.6072 27.243 64.7225 23.3001 64.7225 17.7263C64.7201 12.2106 68.7648 8.21407 74.385 8.21407ZM62.6508 1.25079V26.7113H58.4532V24.5466L58.3545 24.6337C56.5508 26.2064 54.5567 27.1737 52.3228 27.243L52.1958 27.2452H52.0688C46.4768 27.2452 42.6156 23.3135 42.6156 17.7285C42.6156 12.1615 46.5685 8.21183 52.2099 8.21183C54.4392 8.21183 56.5485 8.96915 58.0253 10.1956L58.1123 10.2693L58.1711 10.3207V1.25079H62.6508ZM107.894 7.72259C113.67 7.72259 117.947 11.7661 117.947 17.2393C117.947 22.6902 113.658 26.756 107.894 26.756C102.114 26.756 97.8769 22.708 97.8769 17.2393C97.8769 11.7594 102.126 7.72259 107.894 7.72259ZM97.677 8.16939V12.0274L97.2443 12.0297C94.2908 12.1101 91.8146 14.3686 91.7676 17.3398V17.4292V26.7091H87.5301V17.4314C87.5301 11.9627 91.6006 8.24311 97.1573 8.16939L97.3266 8.16715H97.677V8.16939ZM9.15309 1.24409C13.9361 1.24409 17.2659 4.04325 17.2659 8.05992C17.2659 10.3073 16.2054 12.3089 14.4017 13.4572L14.31 13.513L14.3853 13.5421C17.1201 14.6233 18.5334 16.7836 18.6016 19.5559L18.604 19.6609V19.7614C18.604 23.6553 15.1801 26.6488 10.4935 26.7091H10.35H0.0526123V1.24185H9.15309V1.24409ZM74.8435 12.0677C71.629 12.0677 69.2704 14.42 69.2704 17.6973C69.2704 20.9522 71.6407 23.3269 74.8435 23.3269C78.091 23.3269 80.4167 20.979 80.4167 17.6973C80.4167 14.3955 78.1028 12.0677 74.8435 12.0677ZM30.5639 12.0677C27.3494 12.0677 24.9908 14.42 24.9908 17.6973C24.9908 20.9522 27.3611 23.3269 30.5639 23.3269C33.8114 23.3269 36.1371 20.979 36.1371 17.6973C36.1371 14.3955 33.8232 12.0677 30.5639 12.0677ZM52.739 12.0677C49.5244 12.0677 47.1658 14.42 47.1658 17.6973C47.1658 20.9522 49.5362 23.3269 52.739 23.3269C55.9865 23.3269 58.3122 20.979 58.3122 17.6973C58.3122 14.3955 55.9982 12.0677 52.739 12.0677ZM107.812 11.5203C104.621 11.5203 102.345 13.8504 102.345 17.1499C102.345 20.4294 104.633 22.7795 107.812 22.7795C111.013 22.7795 113.28 20.4428 113.28 17.1499C113.28 13.837 111.024 11.5203 107.812 11.5203ZM10.0302 15.7649H4.54406V22.9136H9.88913C12.3441 22.9136 13.9502 21.4325 13.9502 19.3549C13.9502 17.3555 12.3347 15.8006 10.1102 15.7649H10.0302ZM8.96967 5.04183H4.64988V11.9671H9.11077C11.2954 11.9671 12.8803 10.4748 12.8803 8.52012C12.8803 6.52072 11.3612 5.07534 9.05433 5.04183H8.96967Z" fill="white"/>
<path d="M112.334 6.72377C114.018 6.72377 115.382 5.42806 115.382 3.82854C115.382 2.22902 114.018 0.933319 112.334 0.933319C110.651 0.933319 109.287 2.22902 109.287 3.82854C109.287 5.42806 110.651 6.72377 112.334 6.72377Z" fill="#FF1F6D"/>
</svg>
