<svg width="80" height="80" viewBox="0 0 80 80" fill="none" xmlns="http://www.w3.org/2000/svg">
<path d="M80 40C80 32.0887 77.654 24.3552 73.2588 17.7772C68.8635 11.1992 62.6164 6.07232 55.3073 3.04482C47.9983 0.0173133 39.9556 -0.77482 32.1964 0.768589C24.4371 2.312 17.3098 6.12163 11.7157 11.7157C6.12163 17.3098 2.312 24.4371 0.76859 32.1964C-0.774819 39.9556 0.0173147 47.9983 3.04482 55.3073C6.07233 62.6164 11.1992 68.8635 17.7772 73.2588C24.3552 77.654 32.0888 80 40 80L40 65.4421C34.968 65.4421 30.049 63.95 25.8651 61.1544C21.6812 58.3587 18.4202 54.3852 16.4945 49.7363C14.5689 45.0873 14.065 39.9718 15.0467 35.0365C16.0284 30.1012 18.4515 25.5678 22.0097 22.0097C25.5678 18.4515 30.1012 16.0284 35.0365 15.0467C39.9718 14.065 45.0873 14.5689 49.7363 16.4945C54.3852 18.4202 58.3587 21.6812 61.1544 25.8651C63.95 30.049 65.4421 34.968 65.4421 40L80 40Z" fill="url(#paint0_angular_1_3482)"/>
<path d="M59.7702 39.9999C59.7702 43.9101 58.6107 47.7324 56.4383 50.9836C54.266 54.2348 51.1783 56.7688 47.5658 58.2651C43.9533 59.7615 39.9782 60.153 36.1431 59.3901C32.3081 58.6273 28.7854 56.7444 26.0205 53.9795C23.2556 51.2146 21.3727 47.6919 20.6099 43.8569C19.847 40.0218 20.2385 36.0467 21.7349 32.4342C23.2312 28.8217 25.7652 25.734 29.0164 23.5617C32.2676 21.3893 36.0899 20.2298 40.0001 20.2298L40.0001 27.4251C37.513 27.4251 35.0818 28.1626 33.0139 29.5443C30.946 30.926 29.3342 32.89 28.3824 35.1877C27.4307 37.4855 27.1817 40.0139 27.6669 42.4531C28.1521 44.8924 29.3497 47.133 31.1083 48.8917C32.867 50.6503 35.1076 51.8479 37.5469 52.3331C39.9861 52.8183 42.5145 52.5693 44.8123 51.6176C47.11 50.6658 49.074 49.054 50.4557 46.9861C51.8374 44.9182 52.5749 42.487 52.5749 39.9999H59.7702Z" fill="url(#paint1_angular_1_3482)"/>
<defs>
<radialGradient id="paint0_angular_1_3482" cx="0" cy="0" r="1" gradientUnits="userSpaceOnUse" gradientTransform="translate(39.481 40.4855) rotate(89.2475) scale(39.5179)">
<stop stop-color="#FF1F6D"/>
<stop offset="0.744792"/>
</radialGradient>
<radialGradient id="paint1_angular_1_3482" cx="0" cy="0" r="1" gradientUnits="userSpaceOnUse" gradientTransform="translate(39.7436 39.7599) rotate(-89.2475) scale(19.5318)">
<stop stop-color="#F8F8F8"/>
<stop offset="0.744792" stop-color="white" stop-opacity="0"/>
</radialGradient>
</defs>
</svg>
