<svg width="88" height="17" viewBox="0 0 88 17" fill="none" xmlns="http://www.w3.org/2000/svg">
<path d="M1.12852 4.89999H4.30852C5.16452 4.89999 5.82852 5.10799 6.30052 5.52399C6.77252 5.93999 7.00852 6.46799 7.00852 7.10799C7.00852 8.04399 6.46852 8.65999 5.38852 8.95599C5.93252 9.04399 6.36852 9.28799 6.69652 9.68799C7.03252 10.08 7.20052 10.532 7.20052 11.044C7.20052 11.684 6.95252 12.212 6.45652 12.628C5.96052 13.036 5.29652 13.24 4.46452 13.24H1.12852V4.89999ZM2.49652 5.96799V8.43999H4.18852C4.63652 8.43999 4.98452 8.33199 5.23252 8.11599C5.48852 7.89999 5.61652 7.59999 5.61652 7.21599C5.61652 6.82399 5.48852 6.51999 5.23252 6.30399C4.98452 6.07999 4.63652 5.96799 4.18852 5.96799H2.49652ZM2.49652 12.172H4.34452C4.80852 12.172 5.17252 12.056 5.43652 11.824C5.70052 11.592 5.83252 11.272 5.83252 10.864C5.83252 10.448 5.69252 10.12 5.41252 9.87999C5.13252 9.63199 4.76052 9.50799 4.29652 9.50799H2.49652V12.172ZM10.5111 13.132L7.90711 6.62799H9.43111L11.2911 11.668L13.2231 6.62799H14.6391L10.5831 16.348H9.16711L10.5111 13.132Z" fill="#797880"/>
<path d="M36.4306 4.76416C37.8722 4.76416 39.1379 5.39387 40.0108 6.28531V5.07513H42.4454V15.4926H40.0108V14.2902L39.9795 14.3251C39.1598 15.2166 37.9432 15.766 36.4988 15.8009L36.4224 15.8022H36.3501C33.0795 15.8022 30.8263 13.5153 30.8263 10.2826C30.825 7.08217 33.1709 4.76416 36.4306 4.76416ZM62.1128 4.76416C63.5544 4.76416 64.7696 5.34204 65.6425 6.23219L65.693 6.28402V5.07383H68.1275V15.4913H65.693V14.2889L65.6616 14.3238C64.8419 15.2153 63.6253 15.7647 62.181 15.7997L62.1046 15.8009H62.0323C58.7617 15.8009 56.5085 13.514 56.5085 10.2813C56.5072 7.08217 58.8531 4.76416 62.1128 4.76416ZM55.3069 0.725459V15.4926H52.8724V14.237L52.8151 14.2876C51.769 15.1997 50.6124 15.7608 49.3167 15.8009L49.243 15.8022H49.1694C45.926 15.8022 43.6865 13.5218 43.6865 10.2826C43.6865 7.05367 45.9792 4.76287 49.2512 4.76287C50.5442 4.76287 51.7676 5.20211 52.6241 5.91345L52.6746 5.95621L52.7087 5.98601V0.725459H55.3069ZM81.5483 4.47911C84.898 4.47911 87.3789 6.82433 87.3789 9.99879C87.3789 13.1603 84.8912 15.5185 81.5483 15.5185C78.1958 15.5185 75.7381 13.1707 75.7381 9.99879C75.7381 6.82044 78.2027 4.47911 81.5483 4.47911ZM75.6222 4.73825V6.97592L75.3712 6.97722C73.6581 7.02386 72.222 8.33382 72.1947 10.0571V10.1089V15.4913H69.7369V10.1102C69.7369 6.93835 72.0979 4.781 75.3207 4.73825L75.4189 4.73695H75.6222V4.73825ZM24.2783 0.721572C27.0524 0.721572 28.9837 2.34509 28.9837 4.67476C28.9837 5.97823 28.3686 7.13918 27.3225 7.80517L27.2693 7.83756L27.3129 7.85441C28.8992 8.48153 29.7189 9.73447 29.7584 11.3424L29.7598 11.4033V11.4616C29.7598 13.72 27.7739 15.4563 25.0557 15.4913H24.9725H19V0.720276H24.2783V0.721572ZM62.3787 6.99925C60.5143 6.99925 59.1463 8.36362 59.1463 10.2644C59.1463 12.1523 60.5211 13.5296 62.3787 13.5296C64.2623 13.5296 65.6112 12.1678 65.6112 10.2644C65.6112 8.34937 64.2691 6.99925 62.3787 6.99925ZM36.6966 6.99925C34.8321 6.99925 33.4641 8.36362 33.4641 10.2644C33.4641 12.1523 34.8389 13.5296 36.6966 13.5296C38.5801 13.5296 39.929 12.1678 39.929 10.2644C39.929 8.34937 38.5869 6.99925 36.6966 6.99925ZM49.5581 6.99925C47.6937 6.99925 46.3257 8.36362 46.3257 10.2644C46.3257 12.1523 47.7005 13.5296 49.5581 13.5296C51.4416 13.5296 52.7905 12.1678 52.7905 10.2644C52.7905 8.34937 51.4485 6.99925 49.5581 6.99925ZM81.5006 6.6818C79.6497 6.6818 78.3295 8.03322 78.3295 9.94697C78.3295 11.8491 79.6566 13.2121 81.5006 13.2121C83.3568 13.2121 84.6716 11.8568 84.6716 9.94697C84.6716 8.02544 83.3636 6.6818 81.5006 6.6818ZM24.787 9.14363H21.605V13.2899H24.7052C26.1291 13.2899 27.0606 12.4308 27.0606 11.2258C27.0606 10.0662 26.1236 9.16436 24.8334 9.14363H24.787ZM24.1719 2.92426H21.6664V6.94094H24.2537C25.5208 6.94094 26.4401 6.07541 26.4401 4.94167C26.4401 3.78202 25.559 2.9437 24.221 2.92426H24.1719Z" fill="black"/>
<path d="M84.1233 3.89978C85.0999 3.89978 85.8909 3.14827 85.8909 2.22055C85.8909 1.29283 85.0999 0.541321 84.1233 0.541321C83.1468 0.541321 82.3557 1.29283 82.3557 2.22055C82.3557 3.14827 83.1468 3.89978 84.1233 3.89978Z" fill="#FF1F6D"/>
</svg>
