<svg width="18" height="18" viewBox="0 0 18 18" fill="none" xmlns="http://www.w3.org/2000/svg">
<path d="M16.8499 5.52C16.8354 5.22573 16.7885 4.93396 16.7099 4.65C16.5767 4.17066 16.3336 3.72896 15.9999 3.36L15.8299 3.17C15.6899 3.02 15.5499 2.87 15.3899 2.72C14.7141 2.06827 13.8087 1.709 12.8699 1.72C12.2319 1.75919 11.6026 1.88709 10.9999 2.1L10.7899 2.16C10.2393 2.33771 9.6736 2.4649 9.0999 2.54C9.0033 2.54499 8.9065 2.54499 8.8099 2.54C8.71663 2.54501 8.62316 2.54501 8.5299 2.54C7.9562 2.4649 7.39053 2.33771 6.8399 2.16L6.6199 2.1C6.02218 1.89911 5.39969 1.78134 4.7699 1.75C3.83068 1.73682 2.92452 2.09641 2.2499 2.75C2.0899 2.9 1.9499 3.05 1.8099 3.2L1.6299 3.39C1.29578 3.75041 1.04637 4.18088 0.899898 4.65C0.821333 4.93396 0.774382 5.22573 0.759898 5.52C0.729025 6.23674 0.848239 6.95202 1.1099 7.62C1.2199 7.95 1.3399 8.27 1.4599 8.62C1.5799 8.97 1.5899 8.95 1.6499 9.12C1.7099 9.29 1.6499 9.21 1.6499 9.26C1.67601 9.35252 1.70945 9.4428 1.7499 9.53C1.85478 9.78455 1.91565 10.0551 1.9299 10.33V10.89C1.9299 11.38 1.9899 11.89 2.0299 12.38C2.06469 12.9898 2.1687 13.5937 2.3399 14.18L2.4399 14.49C2.4999 14.68 2.5599 14.88 2.6299 15.07C2.78264 15.5119 3.02045 15.9195 3.3299 16.27C3.64323 16.6322 4.07613 16.8699 4.5499 16.94C5.03437 17.0213 5.53214 16.9446 5.9697 16.7213C6.40726 16.4981 6.76143 16.14 6.9799 15.7C7.19688 15.3018 7.36477 14.8787 7.4799 14.44L7.5499 14.22C7.6599 13.86 7.7499 13.49 7.8399 13.13C7.91254 12.8272 8.02343 12.5348 8.1699 12.26C8.2151 12.15 8.292 12.0558 8.39082 11.9896C8.48965 11.9234 8.60593 11.888 8.7249 11.888C8.84387 11.888 8.96015 11.9234 9.05897 11.9896C9.15779 12.0558 9.23469 12.15 9.2799 12.26C9.42636 12.5348 9.53726 12.8272 9.6099 13.13C9.6999 13.49 9.7899 13.86 9.8999 14.22L9.9699 14.44C10.085 14.8787 10.2529 15.3018 10.4699 15.7C10.701 16.1499 11.0745 16.5106 11.5322 16.7259C11.9899 16.9412 12.506 16.9989 12.9999 16.89C13.4737 16.8199 13.9066 16.5822 14.2199 16.22C14.5293 15.8695 14.7672 15.4619 14.9199 15.02C14.9899 14.83 15.0499 14.63 15.1099 14.44L15.2099 14.13C15.3811 13.5437 15.4851 12.9398 15.5199 12.33C15.5199 11.83 15.5899 11.33 15.6199 10.84V10.28C15.6292 10.0044 15.6903 9.73303 15.7999 9.48C15.7999 9.39 15.8699 9.29 15.8999 9.21C15.8941 9.16351 15.8941 9.11649 15.8999 9.07C15.9599 8.9 16.0299 8.74 16.0899 8.57C16.1499 8.4 16.3299 7.95 16.4399 7.57C16.7153 6.92189 16.8548 6.22418 16.8499 5.52Z" stroke="black" stroke-width="1.5" stroke-miterlimit="10"/>
</svg>
